PathFileType	4	(X/Y/Z)	Kaydara	
DataRate	CameraRate	NumFrames	NumMarkers	Units	OrigDataRate	OrigDataStartFrame	OrigNumFrames	
60.00	60.00	5	74	mm	60.00	748	134	
Frame#	Time	Z_lasi			Z_rasi			Z_rpsi			Z_lpsi			Z_fneck			Z_bneck			Z_fhead			Z_lhead			Z_rshld			Z_relbtop			Z_relbext			Z_relblow			Z_rwrext			Z_rwrtop			Z_rwrlow			Z_lshld			Z_lelbext			Z_lelblow			Z_lelbtop			Z_lwrext			Z_lwrtop			Z_lwrlow			Z_rtopleg			Z_rkneefr			Z_rkneebk			Z_rkneeis			Z_lkneefr			Z_lknssbk			Z_lkneeis			Z_rankfr			Z_rankis			Z_rankbk			Z_lankfr			Z_lankbk			Z_lankis			Z_rhead			Z_ltopleg			N_rpsi			N_lpsi			N_fneck			N_bneck			N_fhead			N_rhead			N_lhead			N_rshld			N_relbtop			N_relbext			N_relblow			N_rwrext			N_rwrtop			N_rwrlow			N_lshld			N_lelbext			N_lelblow			N_lelbtop			N_lwrext			N_lwrtop			N_lwrlow			N_rtopleg			N_ltopleg			N_rkneefr			N_rkneebk			N_rkneeis			N_lkneefr			N_lknssbk			N_lkneeis			N_rankfr			N_rankis			N_rankbk			N_lankfr			N_lankbk			N_lankis			N_lasi			N_rasi			
		X1	Y1	Z1	X2	Y2	Z2	X3	Y3	Z3	X4	Y4	Z4	X5	Y5	Z5	X6	Y6	Z6	X7	Y7	Z7	X8	Y8	Z8	X9	Y9	Z9	X10	Y10	Z10	X11	Y11	Z11	X12	Y12	Z12	X13	Y13	Z13	X14	Y14	Z14	X15	Y15	Z15	X16	Y16	Z16	X17	Y17	Z17	X18	Y18	Z18	X19	Y19	Z19	X20	Y20	Z20	X21	Y21	Z21	X22	Y22	Z22	X23	Y23	Z23	X24	Y24	Z24	X25	Y25	Z25	X26	Y26	Z26	X27	Y27	Z27	X28	Y28	Z28	X29	Y29	Z29	X30	Y30	Z30	X31	Y31	Z31	X32	Y32	Z32	X33	Y33	Z33	X34	Y34	Z34	X35	Y35	Z35	X36	Y36	Z36	X37	Y37	Z37	X38	Y38	Z38	X39	Y39	Z39	X40	Y40	Z40	X41	Y41	Z41	X42	Y42	Z42	X43	Y43	Z43	X44	Y44	Z44	X45	Y45	Z45	X46	Y46	Z46	X47	Y47	Z47	X48	Y48	Z48	X49	Y49	Z49	X50	Y50	Z50	X51	Y51	Z51	X52	Y52	Z52	X53	Y53	Z53	X54	Y54	Z54	X55	Y55	Z55	X56	Y56	Z56	X57	Y57	Z57	X58	Y58	Z58	X59	Y59	Z59	X60	Y60	Z60	X61	Y61	Z61	X62	Y62	Z62	X63	Y63	Z63	X64	Y64	Z64	X65	Y65	Z65	X66	Y66	Z66	X67	Y67	Z67	X68	Y68	Z68	X69	Y69	Z69	X70	Y70	Z70	X71	Y71	Z71	X72	Y72	Z72	X73	Y73	Z73	X74	Y74	Z74	

118	12.450	-1017.26463	981.60942	828.85590	-843.10135	977.77428	993.95363	-1000.90286	1030.21042	1114.97810	-1140.47592	1033.08136	978.01262	-950.86258	1456.08658	911.69083	-1002.24350	1508.84781	1008.91106	-880.53406	1624.27246	847.33475	-926.33850	1629.78134	1034.92653	-788.87299	1384.56268	1084.81895	-700.15259	1126.07582	1065.24429	-745.46577	1070.37392	1086.99776	-747.55310	1114.21844	1005.14366	-630.00782	989.23981	847.74010	-597.61784	1021.09688	847.63901	-622.88624	1053.02727	825.45464	-1169.39484	1402.89215	882.63199	-1154.48837	1083.61198	922.67639	-1207.46803	1109.33434	847.49710	-1228.44559	1086.55731	923.92700	-1225.90958	877.47681	831.04614	-1209.23515	891.62094	794.47952	-1165.76378	886.28899	807.15538	-867.85042	871.43349	1095.08705	-937.75101	406.85280	993.62106	-951.26671	431.67828	1080.50476	-1032.38327	432.87510	994.26880	-1027.07886	423.17032	758.24005	-1107.89322	443.37021	773.83972	-1032.63474	420.58056	866.29044	-980.08560	150.67924	1003.69423	-1061.88751	150.83822	1004.47296	-1023.87199	138.50798	1065.84427	-1096.72615	176.92528	714.45358	-1078.02025	156.40577	774.49097	-1020.22423	179.09847	735.23491	-1032.56645	1628.59894	957.43858	-1142.21634	889.54628	557.97466	53.99552	1050.45532	253.15495	122.31968	1057.31888	488.91449	-152.38095	1469.64401	423.47301	-36.46771	1554.19281	450.00153	-204.48357	1715.59326	350.26363	-51.41538	1671.21872	419.38984	-182.31163	1669.52530	507.93034	-133.09654	1448.71552	229.73984	-251.26509	1159.47166	214.07694	-191.29402	1131.99150	264.41454	-268.26073	1187.59834	280.89729	-395.98263	1016.16440	392.62402	-413.38203	1060.43587	412.27169	-382.30961	1068.94012	445.08175	5.73406	1452.51740	644.69589	133.08252	1146.91513	640.22179	68.08252	1204.91516	602.22179	73.51155	1181.85936	704.95750	-126.49794	1148.25287	594.98005	-135.09699	1195.86647	617.33688	-114.15895	1219.64577	581.22749	-92.52884	889.04381	196.02709	22.03819	881.44264	595.09083	-223.11909	466.13754	276.53629	-117.63336	485.61127	223.89065	-121.03305	452.27100	335.17048	-56.88479	417.30495	526.80939	24.27768	447.14439	459.79912	26.71991	463.58501	580.11421	-221.31153	163.87733	241.59096	-160.09560	154.13826	278.79087	-169.13099	155.03730	202.40063	80.71729	125.42898	554.51435	147.33402	143.80111	493.65208	74.56746	132.10619	484.25488	-81.72847	992.09900	552.27013	-171.14336	989.82063	341.67233 
119	12.467	-1017.63321	981.89941	830.79025	-842.50343	977.71759	994.96582	-999.75700	1029.91699	1117.21352	-1140.05859	1032.85751	981.01494	-950.74867	1455.94086	913.55835	-1002.03156	1508.92502	1010.73967	-880.43831	1623.88977	848.95546	-925.54916	1629.53232	1034.82361	-789.30458	1383.80264	1088.16589	-704.46640	1123.20274	1074.84070	-751.26205	1069.56520	1097.54578	-751.47903	1110.69740	1014.77135	-636.76952	979.47754	861.49208	-602.84687	1010.00748	860.67551	-626.82201	1042.35657	837.73880	-1168.87596	1403.20038	883.84933	-1154.93454	1083.70911	923.42331	-1207.22389	1109.64622	848.02719	-1229.00330	1087.07596	924.17633	-1227.04002	877.85789	831.68747	-1209.86305	891.81534	795.35393	-1166.82472	886.07224	809.24423	-866.38626	871.02951	1096.24290	-937.26891	406.79878	993.97369	-950.65041	431.53553	1080.83618	-1032.18643	432.92301	995.01259	-1026.48392	424.08958	757.70508	-1107.32384	444.01684	773.95515	-1031.78543	421.29459	866.04515	-980.25002	150.83830	1004.14543	-1061.76353	150.88742	1004.61594	-1023.29147	137.77652	1065.37582	-1095.64232	177.90237	713.20763	-1076.42113	157.19028	773.03177	-1019.15276	180.07141	733.67371	-1032.16087	1628.90976	959.10439	-1142.21634	889.54628	557.97466	63.90159	1049.57664	259.86023	125.51159	1056.90842	497.36519	-146.04630	1469.45435	431.50139	-30.04141	1553.79837	459.87152	-197.75854	1716.52054	361.57967	-44.83283	1671.62445	430.96241	-176.25059	1668.65204	518.69865	-122.35807	1450.19379	236.13976	-234.18291	1158.82080	209.76009	-176.20926	1130.22766	260.52059	-254.94211	1184.56299	276.71234	-380.76286	1005.03494	377.95544	-400.44373	1048.04428	398.55232	-371.13514	1056.61240	432.75723	8.98347	1448.71796	654.16122	133.48818	1143.06747	650.44678	68.48818	1201.06750	612.44678	73.47764	1178.00026	714.71405	-124.46949	1145.80856	600.48042	-132.95424	1193.51547	622.59789	-111.41258	1217.21275	586.79272	-82.06269	888.56880	198.69036	22.44653	881.21162	600.36041	-220.10990	467.58644	278.48816	-113.41856	485.88917	227.60098	-118.26207	452.84843	338.41827	-55.32715	417.51675	528.89721	27.26529	447.39155	463.66619	26.44365	462.57782	583.46138	-220.26810	165.24113	243.48827	-159.95522	154.82477	281.93623	-167.55264	155.97110	204.91346	81.04838	124.81632	555.82787	148.32720	143.56386	495.63377	75.50021	132.08035	485.75123	-80.10059	991.77948	554.70085	-163.85544	990.11810	341.99635 
120	12.483	-1017.87727	982.37236	832.70378	-842.27264	978.01865	996.18431	-998.82416	1029.73808	1119.31404	-1139.72694	1032.70676	983.81569	-950.53291	1455.87753	915.19539	-1001.98792	1509.02878	1012.31560	-879.95918	1623.64578	850.41100	-925.09903	1629.69009	1036.02806	-789.37958	1383.41492	1092.36374	-709.50089	1120.45166	1084.40369	-757.50946	1068.72856	1108.61557	-755.99991	1107.42744	1024.54544	-643.58170	969.43253	875.56358	-609.17061	998.79372	874.02260	-632.13486	1031.27174	850.19905	-1168.08266	1403.46359	884.74655	-1155.30663	1083.77296	924.00032	-1206.31882	1109.94148	847.74727	-1229.34601	1087.63710	923.69415	-1227.86728	878.23891	831.78650	-1209.93568	891.94206	795.57045	-1167.18231	885.82993	810.34210	-865.63545	870.90607	1097.26532	-936.69243	406.69643	994.17397	-950.03258	431.45031	1081.05354	-1031.81137	433.00678	995.39803	-1025.78247	425.28255	756.68144	-1106.49292	444.86076	773.55164	-1030.31296	422.10598	865.13176	-980.21339	150.64136	1004.52782	-1061.56540	150.99178	1004.73106	-1023.50365	138.22504	1065.85869	-1094.48326	179.19283	711.65634	-1074.84306	158.43588	771.30249	-1017.79083	181.44979	731.44188	-1031.68068	1628.88947	960.52544	-1142.21634	889.54628	557.97466	73.06110	1049.03320	266.53858	128.60677	1056.33324	505.55195	-139.90202	1469.73389	439.02775	-26.71456	1552.43607	456.07559	-191.42179	1717.66846	372.55661	-38.63381	1672.23709	441.89819	-170.35570	1668.01208	528.61977	-112.38976	1451.70288	242.08057	-217.21476	1158.53249	205.47367	-160.60528	1130.37148	256.11240	-241.82642	1182.04819	272.12183	-364.66595	993.63434	362.12383	-386.78501	1035.21820	383.34530	-359.87202	1044.29054	419.28349	12.59405	1445.45837	662.97104	133.50409	1140.57686	660.39711	68.50409	1198.57689	622.39712	73.05400	1175.49820	724.19594	-122.04528	1143.97682	605.62111	-130.94923	1191.77025	627.92175	-108.48585	1215.22217	592.46189	-71.68210	888.66470	200.42351	22.73278	881.46538	605.95844	-216.49187	469.06727	279.89662	-108.72190	486.27613	230.93082	-116.05914	453.30811	342.21920	-53.72817	417.82879	530.53638	29.68908	447.89368	466.63338	27.61722	462.03358	586.50677	-219.05283	166.72817	245.41281	-160.10155	155.80041	285.24960	-165.89014	156.80370	207.94577	81.37168	124.33532	556.84414	148.88687	143.36405	496.80904	76.01441	132.08405	486.73214	-78.53539	991.78986	556.99787	-157.00992	989.87747	342.51019 
121	12.500	-1017.92297	982.98851	834.51294	-842.13280	978.31360	997.12257	-998.13248	1029.57054	1121.31134	-1139.47227	1032.65839	986.14815	-950.23766	1455.87616	916.56754	-1001.66275	1509.27826	1013.66257	-879.50340	1623.31207	851.46645	-924.57611	1629.86481	1037.18056	-790.13832	1382.76443	1096.08864	-714.73099	1117.84691	1093.73634	-763.96370	1068.11058	1119.56467	-761.02646	1104.08417	1034.06158	-651.65489	959.19731	889.83955	-616.36349	987.41837	887.41913	-638.48713	1020.11391	862.47261	-1167.02934	1403.85406	885.17235	-1155.46165	1083.87199	924.07784	-1205.16449	1110.28709	846.99577	-1229.53400	1088.21632	922.62772	-1228.35869	878.70514	831.11755	-1209.54636	892.06619	795.33218	-1167.23076	885.47737	811.31531	-865.01335	870.94482	1098.81393	-936.00922	406.54926	994.42238	-949.33754	431.46572	1081.10649	-1030.94284	433.07095	995.33226	-1024.90410	426.63940	755.24307	-1105.55511	446.00803	772.81731	-1028.50304	423.09204	863.58772	-979.65797	150.50867	1003.82416	-1061.28189	151.07646	1004.67430	-1023.41026	138.34648	1065.95505	-1093.32222	180.37827	710.05165	-1072.99637	159.70846	769.43077	-1016.49879	182.91384	729.23531	-1031.12411	1629.24301	961.65825	-1142.21634	889.54628	557.97466	81.34538	1048.93112	273.09528	131.70331	1056.32935	513.40027	-134.23301	1470.14923	445.78354	-22.12452	1551.83060	458.25989	-185.27653	1719.42337	383.03490	-32.64205	1673.07129	451.98830	-164.33609	1667.44385	538.45951	-102.98393	1453.35678	247.35865	-200.67419	1158.83743	201.54055	-145.01644	1131.05949	252.48198	-228.48211	1179.92340	267.22376	-347.90470	982.49901	345.49461	-373.14529	1022.63519	367.01595	-348.68469	1031.95534	404.48380	15.84322	1442.74673	670.91286	135.01064	1137.12326	668.50494	70.01064	1195.12329	630.50495	74.12100	1172.03316	731.83533	-120.05271	1142.57805	610.98892	-129.09464	1190.39391	633.03680	-105.55406	1213.52875	597.80338	-62.50239	888.76572	203.73487	22.91501	881.93329	611.01501	-212.48339	470.60135	280.75748	-103.60104	486.75190	233.96168	-113.72858	453.78880	345.57743	-51.88196	418.40126	532.48848	31.71522	448.41507	468.80627	29.50238	461.95538	588.46291	-217.58640	168.32458	246.90235	-159.65367	156.89450	287.85606	-163.83293	157.76111	210.57396	81.75063	124.12488	557.30854	149.22848	143.17508	497.43675	76.34600	132.16453	487.10590	-77.05099	991.92703	559.35200	-151.25621	990.55893	341.11790 
122	12.517	-1017.73270	983.64143	836.24405	-842.05063	978.63411	997.55569	-997.94281	1029.44778	1123.02414	-1139.21677	1032.73361	988.07053	-949.81850	1455.83725	917.86552	-1001.25137	1509.47235	1014.78897	-878.83499	1623.18634	852.47353	-923.92982	1629.89594	1038.24905	-790.73830	1382.48627	1098.38585	-720.09956	1115.64194	1103.36388	-770.68642	1067.73766	1130.19302	-766.43234	1100.91431	1043.87146	-660.36690	949.20692	904.69223	-624.36665	976.32416	901.48277	-645.32288	1008.48000	875.57701	-1165.94498	1404.20517	885.46989	-1155.31029	1083.95958	923.86063	-1203.54149	1110.60928	845.80467	-1229.45877	1088.86230	921.01738	-1228.49121	879.21776	830.11368	-1208.70506	892.29439	794.52988	-1166.89453	885.19920	811.68541	-864.59251	870.69565	1099.92920	-935.02747	406.45363	994.25606	-948.37425	431.36818	1080.60440	-1029.84390	433.16383	994.78592	-1023.71254	428.05149	753.36441	-1104.42726	447.24827	771.68083	-1026.66946	424.29070	861.82014	-979.35432	150.40318	1003.61137	-1061.03317	151.17274	1004.48921	-1023.30925	138.53262	1065.88013	-1092.22084	181.56399	708.72452	-1071.18240	160.86758	767.79800	-1015.23491	184.01302	727.34055	-1030.68924	1629.37164	963.31833	-1142.21634	889.54628	557.97466	88.67866	1049.27124	279.38370	134.51492	1056.94069	520.36522	-129.07234	1471.16669	452.04445	-13.95913	1551.01471	475.28534	-179.69805	1721.33667	392.83337	-27.02083	1674.00299	461.58524	-158.76425	1667.33719	547.89326	-94.08945	1455.16510	252.26145	-184.50773	1159.73328	197.76455	-129.90245	1131.90781	250.31010	-215.76153	1178.51212	262.37865	-330.87776	972.83859	328.98739	-359.36089	1010.61951	349.62151	-337.19685	1019.86320	388.81416	18.94747	1440.56122	678.20625	135.32239	1135.75745	677.35680	70.32239	1193.75748	639.35680	73.99319	1170.65598	740.21873	-118.23591	1141.63780	616.25175	-126.96607	1189.34982	637.96516	-102.95884	1212.42233	602.80743	-54.00525	889.24301	206.89465	23.66693	882.55356	615.45116	-208.02893	472.18800	281.15911	-98.03785	487.28184	236.62590	-110.57906	454.51111	348.09341	-49.77024	419.17912	533.85719	34.13843	449.14089	470.02571	31.89473	462.15324	590.05127	-215.72409	170.02331	248.02134	-159.18304	158.28568	290.18087	-161.22692	158.94610	212.51310	81.93612	124.09074	557.59254	149.60352	142.92539	497.72831	76.65244	132.24688	487.45922	-75.74018	992.41226	561.96022	-145.34839	990.64026	344.12285 
